<svg id="Group_4436" data-name="Group 4436" xmlns="http://www.w3.org/2000/svg" width="221.702" height="46.802" viewBox="0 0 221.702 46.802">
  <g id="Group_4435" data-name="Group 4435">
    <g id="Group_4434" data-name="Group 4434">
      <path id="Path_65" data-name="Path 65" d="M0,1.885A1.224,1.224,0,0,1,1.17.649H17.031a22.751,22.751,0,1,1,0,45.5H1.17A1.223,1.223,0,0,1,0,44.917ZM16.381,36.531c7.345,0,12.676-5.785,12.676-13.195,0-7.346-5.331-13.131-12.676-13.131h-6.24V36.531Z" fill="#fff"/>
      <path id="Path_66" data-name="Path 66" d="M67.925,0a21.834,21.834,0,0,1,15.73,6.045,1.209,1.209,0,0,1,.066,1.82L78.65,13.13a1.138,1.138,0,0,1-1.625,0A13.279,13.279,0,0,0,68.25,9.815c-7.346,0-12.74,6.111-12.74,13.391a12.876,12.876,0,0,0,12.8,13.2,13.745,13.745,0,0,0,8.711-3.12,1.284,1.284,0,0,1,1.69.065l5.07,5.4a1.3,1.3,0,0,1-.064,1.755,22.314,22.314,0,0,1-15.8,6.306,23.4,23.4,0,1,1,0-46.8Z" fill="#fff"/>
      <path id="Path_67" data-name="Path 67" d="M88.919,39.977l3.055-5.4a1.677,1.677,0,0,1,2.21-.39c.259.13,4.94,3.576,9.23,3.576,2.6,0,4.485-1.625,4.485-3.9,0-2.73-2.275-4.81-6.695-6.565-5.59-2.21-12.61-6.566-12.61-14.365C88.594,6.5,93.6,0,103.609,0A24.181,24.181,0,0,1,117.52,4.875a1.647,1.647,0,0,1,.39,2.08L114.6,11.96c-.455.716-1.625,1.3-2.21.846-.585-.326-5.33-3.9-9.3-3.9-2.34,0-4.095,1.56-4.095,3.316,0,2.4,1.95,4.224,7.085,6.3,5.07,2.016,13.131,5.981,13.131,14.821,0,6.695-5.785,13.456-15.341,13.456-8.45,0-13.131-3.511-14.626-5C88.594,41.146,88.4,40.887,88.919,39.977Z" fill="#fff"/>
      <path id="Path_68" data-name="Path 68" d="M127.138,1.885A1.279,1.279,0,0,1,128.373.649h7.8a1.279,1.279,0,0,1,1.235,1.236V44.917a1.278,1.278,0,0,1-1.235,1.234h-7.8a1.278,1.278,0,0,1-1.235-1.234Z" fill="#fff"/>
      <path id="Path_69" data-name="Path 69" d="M148.587,1.885A1.235,1.235,0,0,1,149.822.649h7.736a1.279,1.279,0,0,1,1.234,1.236V36.6h15.471a1.233,1.233,0,0,1,1.235,1.234v7.086a1.233,1.233,0,0,1-1.235,1.234H149.822a1.234,1.234,0,0,1-1.235-1.234Z" fill="#fff"/>
    </g>
  </g>
  <path id="Path_70" data-name="Path 70" d="M221,21.709l-2.96-2.96-.521-.522h0L201.233,1.943a2.4,2.4,0,0,0-3.394,0l-3.481,3.48a2.4,2.4,0,0,0,0,3.395l14.588,14.587L194.389,37.962a2.422,2.422,0,0,0-.032,3.425l3.481,3.481a2.423,2.423,0,0,0,3.425-.031l16.246-16.246.009-.008L221,25.1A2.4,2.4,0,0,0,221,21.709Z" fill="#06e5b6"/>
</svg>
